<svg width="473" height="88" viewBox="0 0 473 88" fill="none" xmlns="http://www.w3.org/2000/svg">
<g filter="url(#filter0_d_137_906)">
<mask id="path-1-outside-1_137_906" maskUnits="userSpaceOnUse" x="3" y="8" width="447" height="62" fill="black">
<rect fill="white" x="3" y="8" width="447" height="62"/>
<path d="M17.8162 33.56H44.7762V43.64H17.8162V33.56ZM18.7762 56.6H49.2562V67H5.89625V11H48.2163V21.4H18.7762V56.6ZM80.7681 67V21.56H62.8481V11H111.648V21.56H93.7281V67H80.7681ZM152.164 67.96C144.217 67.96 138.004 65.7467 133.524 61.32C129.044 56.8933 126.804 50.5733 126.804 42.36V11H139.764V41.88C139.764 47.2133 140.857 51.0533 143.044 53.4C145.23 55.7467 148.297 56.92 152.244 56.92C156.19 56.92 159.257 55.7467 161.444 53.4C163.63 51.0533 164.724 47.2133 164.724 41.88V11H177.524V42.36C177.524 50.5733 175.284 56.8933 170.804 61.32C166.324 65.7467 160.11 67.96 152.164 67.96ZM199.931 67V11H210.651L243.691 51.32H238.491V11H251.291V67H240.651L207.531 26.68H212.731V67H199.931ZM286.06 33.56H313.02V43.64H286.06V33.56ZM287.02 56.6H317.5V67H274.14V11H316.46V21.4H287.02V56.6ZM337.412 67V11H361.652C366.665 11 370.985 11.8267 374.612 13.48C378.239 15.08 381.039 17.4 383.012 20.44C384.985 23.48 385.972 27.1067 385.972 31.32C385.972 35.48 384.985 39.08 383.012 42.12C381.039 45.1067 378.239 47.4 374.612 49C370.985 50.6 366.665 51.4 361.652 51.4H344.612L350.372 45.72V67H337.412ZM373.012 67L359.012 46.68H372.852L387.012 67H373.012ZM350.372 47.16L344.612 41.08H360.932C364.932 41.08 367.919 40.2267 369.892 38.52C371.865 36.76 372.852 34.36 372.852 31.32C372.852 28.2267 371.865 25.8267 369.892 24.12C367.919 22.4133 364.932 21.56 360.932 21.56H344.612L350.372 15.4V47.16ZM424.24 67.96C419.76 67.96 415.467 67.3733 411.36 66.2C407.253 64.9733 403.947 63.4 401.44 61.48L405.84 51.72C408.24 53.4267 411.067 54.84 414.32 55.96C417.627 57.0267 420.96 57.56 424.32 57.56C426.88 57.56 428.933 57.32 430.48 56.84C432.08 56.3067 433.253 55.5867 434 54.68C434.747 53.7733 435.12 52.7333 435.12 51.56C435.12 50.0667 434.533 48.8933 433.36 48.04C432.187 47.1333 430.64 46.4133 428.72 45.88C426.8 45.2933 424.667 44.76 422.32 44.28C420.027 43.7467 417.707 43.1067 415.36 42.36C413.067 41.6133 410.96 40.6533 409.04 39.48C407.12 38.3067 405.547 36.76 404.32 34.84C403.147 32.92 402.56 30.4667 402.56 27.48C402.56 24.28 403.413 21.3733 405.12 18.76C406.88 16.0933 409.493 13.9867 412.96 12.44C416.48 10.84 420.88 10.04 426.16 10.04C429.68 10.04 433.147 10.4667 436.56 11.32C439.973 12.12 442.987 13.3467 445.6 15L441.6 24.84C438.987 23.3467 436.373 22.2533 433.76 21.56C431.147 20.8133 428.587 20.44 426.08 20.44C423.573 20.44 421.52 20.7333 419.92 21.32C418.32 21.9067 417.173 22.68 416.48 23.64C415.787 24.5467 415.44 25.6133 415.44 26.84C415.44 28.28 416.027 29.4533 417.2 30.36C418.373 31.2133 419.92 31.9067 421.84 32.44C423.76 32.9733 425.867 33.5067 428.16 34.04C430.507 34.5733 432.827 35.1867 435.12 35.88C437.467 36.5733 439.6 37.5067 441.52 38.68C443.44 39.8533 444.987 41.4 446.16 43.32C447.387 45.24 448 47.6667 448 50.6C448 53.7467 447.12 56.6267 445.36 59.24C443.6 61.8533 440.96 63.96 437.44 65.56C433.973 67.16 429.573 67.96 424.24 67.96Z"/>
</mask>
<path d="M17.8162 33.56V31.56H15.8162V33.56H17.8162ZM44.7762 33.56H46.7762V31.56H44.7762V33.56ZM44.7762 43.64V45.64H46.7762V43.64H44.7762ZM17.8162 43.64H15.8162V45.64H17.8162V43.64ZM18.7762 56.6H16.7762V58.6H18.7762V56.6ZM49.2562 56.6H51.2562V54.6H49.2562V56.6ZM49.2562 67V69H51.2562V67H49.2562ZM5.89625 67H3.89625V69H5.89625V67ZM5.89625 11V9H3.89625V11H5.89625ZM48.2163 11H50.2163V9H48.2163V11ZM48.2163 21.4V23.4H50.2163V21.4H48.2163ZM18.7762 21.4V19.4H16.7762V21.4H18.7762ZM17.8162 35.56H44.7762V31.56H17.8162V35.56ZM42.7762 33.56V43.64H46.7762V33.56H42.7762ZM44.7762 41.64H17.8162V45.64H44.7762V41.64ZM19.8162 43.64V33.56H15.8162V43.64H19.8162ZM18.7762 58.6H49.2562V54.6H18.7762V58.6ZM47.2562 56.6V67H51.2562V56.6H47.2562ZM49.2562 65H5.89625V69H49.2562V65ZM7.89625 67V11H3.89625V67H7.89625ZM5.89625 13H48.2163V9H5.89625V13ZM46.2163 11V21.4H50.2163V11H46.2163ZM48.2163 19.4H18.7762V23.4H48.2163V19.4ZM16.7762 21.4V56.6H20.7762V21.4H16.7762ZM80.7681 67H78.7681V69H80.7681V67ZM80.7681 21.56H82.7681V19.56H80.7681V21.56ZM62.8481 21.56H60.8481V23.56H62.8481V21.56ZM62.8481 11V9H60.8481V11H62.8481ZM111.648 11H113.648V9H111.648V11ZM111.648 21.56V23.56H113.648V21.56H111.648ZM93.7281 21.56V19.56H91.7281V21.56H93.7281ZM93.7281 67V69H95.7281V67H93.7281ZM82.7681 67V21.56H78.7681V67H82.7681ZM80.7681 19.56H62.8481V23.56H80.7681V19.56ZM64.8481 21.56V11H60.8481V21.56H64.8481ZM62.8481 13H111.648V9H62.8481V13ZM109.648 11V21.56H113.648V11H109.648ZM111.648 19.56H93.7281V23.56H111.648V19.56ZM91.7281 21.56V67H95.7281V21.56H91.7281ZM93.7281 65H80.7681V69H93.7281V65ZM133.524 61.32L134.929 59.8973L133.524 61.32ZM126.804 11V9H124.804V11H126.804ZM139.764 11H141.764V9H139.764V11ZM143.044 53.4L141.581 54.7635L143.044 53.4ZM161.444 53.4L162.907 54.7635L161.444 53.4ZM164.724 11V9H162.724V11H164.724ZM177.524 11H179.524V9H177.524V11ZM170.804 61.32L172.209 62.7427L170.804 61.32ZM152.164 65.96C144.599 65.96 138.943 63.8635 134.929 59.8973L132.118 62.7427C137.064 67.6299 143.836 69.96 152.164 69.96V65.96ZM134.929 59.8973C130.935 55.9509 128.804 50.2083 128.804 42.36H124.804C124.804 50.9383 127.152 57.8358 132.118 62.7427L134.929 59.8973ZM128.804 42.36V11H124.804V42.36H128.804ZM126.804 13H139.764V9H126.804V13ZM137.764 11V41.88H141.764V11H137.764ZM137.764 41.88C137.764 47.4052 138.882 51.8675 141.581 54.7635L144.507 52.0365C142.832 50.2392 141.764 47.0215 141.764 41.88H137.764ZM141.581 54.7635C144.23 57.6067 147.879 58.92 152.244 58.92V54.92C148.715 54.92 146.231 53.8866 144.507 52.0365L141.581 54.7635ZM152.244 58.92C156.608 58.92 160.258 57.6067 162.907 54.7635L159.981 52.0365C158.257 53.8866 155.773 54.92 152.244 54.92V58.92ZM162.907 54.7635C165.605 51.8675 166.724 47.4052 166.724 41.88H162.724C162.724 47.0215 161.655 50.2392 159.981 52.0365L162.907 54.7635ZM166.724 41.88V11H162.724V41.88H166.724ZM164.724 13H177.524V9H164.724V13ZM175.524 11V42.36H179.524V11H175.524ZM175.524 42.36C175.524 50.2083 173.392 55.9509 169.398 59.8973L172.209 62.7427C177.175 57.8358 179.524 50.9383 179.524 42.36H175.524ZM169.398 59.8973C165.384 63.8635 159.729 65.96 152.164 65.96V69.96C160.492 69.96 167.263 67.6299 172.209 62.7427L169.398 59.8973ZM199.931 67H197.931V69H199.931V67ZM199.931 11V9H197.931V11H199.931ZM210.651 11L212.198 9.73235L211.597 9H210.651V11ZM243.691 51.32V53.32H247.915L245.238 50.0524L243.691 51.32ZM238.491 51.32H236.491V53.32H238.491V51.32ZM238.491 11V9H236.491V11H238.491ZM251.291 11H253.291V9H251.291V11ZM251.291 67V69H253.291V67H251.291ZM240.651 67L239.105 68.2695L239.705 69H240.651V67ZM207.531 26.68V24.68H203.3L205.985 27.9495L207.531 26.68ZM212.731 26.68H214.731V24.68H212.731V26.68ZM212.731 67V69H214.731V67H212.731ZM201.931 67V11H197.931V67H201.931ZM199.931 13H210.651V9H199.931V13ZM209.104 12.2676L242.144 52.5876L245.238 50.0524L212.198 9.73235L209.104 12.2676ZM243.691 49.32H238.491V53.32H243.691V49.32ZM240.491 51.32V11H236.491V51.32H240.491ZM238.491 13H251.291V9H238.491V13ZM249.291 11V67H253.291V11H249.291ZM251.291 65H240.651V69H251.291V65ZM242.196 65.7305L209.076 25.4105L205.985 27.9495L239.105 68.2695L242.196 65.7305ZM207.531 28.68H212.731V24.68H207.531V28.68ZM210.731 26.68V67H214.731V26.68H210.731ZM212.731 65H199.931V69H212.731V65ZM286.06 33.56V31.56H284.06V33.56H286.06ZM313.02 33.56H315.02V31.56H313.02V33.56ZM313.02 43.64V45.64H315.02V43.64H313.02ZM286.06 43.64H284.06V45.64H286.06V43.64ZM287.02 56.6H285.02V58.6H287.02V56.6ZM317.5 56.6H319.5V54.6H317.5V56.6ZM317.5 67V69H319.5V67H317.5ZM274.14 67H272.14V69H274.14V67ZM274.14 11V9H272.14V11H274.14ZM316.46 11H318.46V9H316.46V11ZM316.46 21.4V23.4H318.46V21.4H316.46ZM287.02 21.4V19.4H285.02V21.4H287.02ZM286.06 35.56H313.02V31.56H286.06V35.56ZM311.02 33.56V43.64H315.02V33.56H311.02ZM313.02 41.64H286.06V45.64H313.02V41.64ZM288.06 43.64V33.56H284.06V43.64H288.06ZM287.02 58.6H317.5V54.6H287.02V58.6ZM315.5 56.6V67H319.5V56.6H315.5ZM317.5 65H274.14V69H317.5V65ZM276.14 67V11H272.14V67H276.14ZM274.14 13H316.46V9H274.14V13ZM314.46 11V21.4H318.46V11H314.46ZM316.46 19.4H287.02V23.4H316.46V19.4ZM285.02 21.4V56.6H289.02V21.4H285.02ZM337.412 67H335.412V69H337.412V67ZM337.412 11V9H335.412V11H337.412ZM374.612 13.48L373.782 15.2998L373.793 15.3049L373.805 15.3098L374.612 13.48ZM383.012 20.44L381.334 21.5289V21.5289L383.012 20.44ZM383.012 42.12L384.681 43.2225L384.685 43.2157L384.689 43.2089L383.012 42.12ZM374.612 49L375.419 50.8298L374.612 49ZM344.612 51.4L343.208 49.9759L339.735 53.4H344.612V51.4ZM350.372 45.72H352.372V40.9389L348.968 44.2959L350.372 45.72ZM350.372 67V69H352.372V67H350.372ZM373.012 67L371.365 68.1347L371.961 69H373.012V67ZM359.012 46.68V44.68H355.205L357.365 47.8147L359.012 46.68ZM372.852 46.68L374.493 45.5365L373.896 44.68H372.852V46.68ZM387.012 67V69H390.843L388.653 65.8565L387.012 67ZM350.372 47.16L348.92 48.5355L352.372 52.1792V47.16H350.372ZM344.612 41.08V39.08H339.962L343.16 42.4555L344.612 41.08ZM369.892 38.52L371.2 40.0327L371.212 40.0227L371.223 40.0126L369.892 38.52ZM344.612 21.56L343.151 20.194L340.004 23.56H344.612V21.56ZM350.372 15.4H352.372V10.3328L348.911 14.034L350.372 15.4ZM339.412 67V11H335.412V67H339.412ZM337.412 13H361.652V9H337.412V13ZM361.652 13C366.45 13 370.474 13.7917 373.782 15.2998L375.441 11.6602C371.496 9.86165 366.88 9 361.652 9V13ZM373.805 15.3098C377.11 16.7681 379.593 18.8457 381.334 21.5289L384.689 19.3511C382.484 15.9542 379.367 13.3919 375.419 11.6502L373.805 15.3098ZM381.334 21.5289C383.065 24.1948 383.972 27.429 383.972 31.32H387.972C387.972 26.7844 386.906 22.7652 384.689 19.3511L381.334 21.5289ZM383.972 31.32C383.972 35.1521 383.067 38.3611 381.334 41.0311L384.689 43.2089C386.903 39.7989 387.972 35.8079 387.972 31.32H383.972ZM381.343 41.0175C379.604 43.6503 377.119 45.7078 373.805 47.1702L375.419 50.8298C379.358 49.0922 382.473 46.563 384.681 43.2225L381.343 41.0175ZM373.805 47.1702C370.49 48.6324 366.458 49.4 361.652 49.4V53.4C366.872 53.4 371.48 52.5676 375.419 50.8298L373.805 47.1702ZM361.652 49.4H344.612V53.4H361.652V49.4ZM346.016 52.8241L351.776 47.1441L348.968 44.2959L343.208 49.9759L346.016 52.8241ZM348.372 45.72V67H352.372V45.72H348.372ZM350.372 65H337.412V69H350.372V65ZM374.659 65.8653L360.659 45.5453L357.365 47.8147L371.365 68.1347L374.659 65.8653ZM359.012 48.68H372.852V44.68H359.012V48.68ZM371.211 47.8235L385.371 68.1435L388.653 65.8565L374.493 45.5365L371.211 47.8235ZM387.012 65H373.012V69H387.012V65ZM351.824 45.7845L346.064 39.7045L343.16 42.4555L348.92 48.5355L351.824 45.7845ZM344.612 43.08H360.932V39.08H344.612V43.08ZM360.932 43.08C365.167 43.08 368.713 42.1839 371.2 40.0327L368.584 37.0073C367.124 38.2694 364.697 39.08 360.932 39.08V43.08ZM371.223 40.0126C373.688 37.8146 374.852 34.8358 374.852 31.32H370.852C370.852 33.8842 370.043 35.7054 368.561 37.0274L371.223 40.0126ZM374.852 31.32C374.852 27.7645 373.695 24.7651 371.2 22.6073L368.584 25.6327C370.035 26.8882 370.852 28.6888 370.852 31.32H374.852ZM371.2 22.6073C368.713 20.4561 365.167 19.56 360.932 19.56V23.56C364.697 23.56 367.124 24.3706 368.584 25.6327L371.2 22.6073ZM360.932 19.56H344.612V23.56H360.932V19.56ZM346.073 22.926L351.833 16.766L348.911 14.034L343.151 20.194L346.073 22.926ZM348.372 15.4V47.16H352.372V15.4H348.372ZM411.36 66.2L410.788 68.1163L410.799 68.1198L410.811 68.123L411.36 66.2ZM401.44 61.48L399.617 60.658L398.965 62.1036L400.224 63.0678L401.44 61.48ZM405.84 51.72L406.999 50.0901L405.017 48.6803L404.017 50.898L405.84 51.72ZM414.32 55.96L413.669 57.8511L413.687 57.8574L413.706 57.8634L414.32 55.96ZM430.48 56.84L431.073 58.7501L431.093 58.7439L431.112 58.7374L430.48 56.84ZM434 54.68L432.456 53.4086L434 54.68ZM433.36 48.04L432.137 49.6226L432.16 49.6404L432.184 49.6575L433.36 48.04ZM428.72 45.88L428.136 47.7927L428.16 47.8002L428.185 47.807L428.72 45.88ZM422.32 44.28L421.867 46.228L421.893 46.2341L421.919 46.2394L422.32 44.28ZM415.36 42.36L414.741 44.2618L414.754 44.2659L415.36 42.36ZM409.04 39.48L407.997 41.1866L409.04 39.48ZM404.32 34.84L402.613 35.8829L402.624 35.8999L402.635 35.9168L404.32 34.84ZM405.12 18.76L403.451 17.6583L403.445 17.6664L405.12 18.76ZM412.96 12.44L413.775 14.2665L413.788 14.2607L412.96 12.44ZM436.56 11.32L436.075 13.2603L436.089 13.2639L436.104 13.2672L436.56 11.32ZM445.6 15L447.453 15.7532L448.083 14.2039L446.669 13.3098L445.6 15ZM441.6 24.84L440.608 26.5765L442.592 27.7104L443.453 25.5932L441.6 24.84ZM433.76 21.56L433.211 23.483L433.229 23.4883L433.247 23.4931L433.76 21.56ZM419.92 21.32L419.232 19.4422V19.4422L419.92 21.32ZM416.48 23.64L418.069 24.8549L418.085 24.8332L418.101 24.811L416.48 23.64ZM417.2 30.36L415.977 31.9426L416 31.9604L416.024 31.9775L417.2 30.36ZM421.84 32.44L421.305 34.367L421.84 32.44ZM428.16 34.04L427.707 35.988L427.717 35.9903L428.16 34.04ZM435.12 35.88L434.541 37.7945L434.553 37.798L435.12 35.88ZM441.52 38.68L442.563 36.9734V36.9734L441.52 38.68ZM446.16 43.32L444.453 44.3629L444.464 44.3799L444.475 44.3968L446.16 43.32ZM445.36 59.24L447.019 60.3572L445.36 59.24ZM437.44 65.56L436.612 63.7392L436.602 63.7441L437.44 65.56ZM424.24 65.96C419.937 65.96 415.829 65.3968 411.909 64.277L410.811 68.123C415.104 69.3499 419.583 69.96 424.24 69.96V65.96ZM411.932 64.2837C407.981 63.1033 404.915 61.6221 402.656 59.8922L400.224 63.0678C402.979 65.1779 406.526 66.8434 410.788 68.1163L411.932 64.2837ZM403.263 62.302L407.663 52.542L404.017 50.898L399.617 60.658L403.263 62.302ZM404.681 53.3499C407.261 55.1843 410.264 56.679 413.669 57.8511L414.971 54.0689C411.869 53.001 409.219 51.669 406.999 50.0901L404.681 53.3499ZM413.706 57.8634C417.204 58.9919 420.745 59.56 424.32 59.56V55.56C421.176 55.56 418.049 55.0615 414.934 54.0566L413.706 57.8634ZM424.32 59.56C426.979 59.56 429.256 59.3139 431.073 58.7501L429.887 54.9299C428.61 55.3261 426.781 55.56 424.32 55.56V59.56ZM431.112 58.7374C432.922 58.1343 434.476 57.2485 435.544 55.9514L432.456 53.4086C432.031 53.9249 431.238 54.479 429.848 54.9426L431.112 58.7374ZM435.544 55.9514C436.585 54.6871 437.12 53.1977 437.12 51.56H433.12C433.12 52.2689 432.908 52.8596 432.456 53.4086L435.544 55.9514ZM437.12 51.56C437.12 49.449 436.245 47.6651 434.536 46.4225L432.184 49.6575C432.822 50.1216 433.12 50.6844 433.12 51.56H437.12ZM434.583 46.4574C433.148 45.3483 431.344 44.5331 429.255 43.953L428.185 47.807C429.936 48.2935 431.226 48.9184 432.137 49.6226L434.583 46.4574ZM429.304 43.9673C427.314 43.359 425.118 42.8109 422.721 42.3206L421.919 46.2394C424.215 46.7091 426.286 47.2276 428.136 47.7927L429.304 43.9673ZM422.773 42.332C420.534 41.8112 418.265 41.1855 415.966 40.4541L414.754 44.2659C417.149 45.0279 419.52 45.6821 421.867 46.228L422.773 42.332ZM415.979 40.4583C413.824 39.7565 411.861 38.8598 410.083 37.7734L407.997 41.1866C410.059 42.4469 412.31 43.4702 414.741 44.2617L415.979 40.4583ZM410.083 37.7734C408.425 36.7606 407.071 35.4306 406.005 33.7632L402.635 35.9168C404.023 38.0894 405.815 39.8528 407.997 41.1866L410.083 37.7734ZM406.027 33.7971C405.098 32.278 404.56 30.2159 404.56 27.48H400.56C400.56 30.7174 401.195 33.562 402.613 35.8829L406.027 33.7971ZM404.56 27.48C404.56 24.658 405.306 22.1331 406.795 19.8536L403.445 17.6664C401.521 20.6135 400.56 23.902 400.56 27.48H404.56ZM406.789 19.8617C408.303 17.5687 410.59 15.6875 413.775 14.2665L412.145 10.6135C408.397 12.2859 405.457 14.618 403.451 17.6583L406.789 19.8617ZM413.788 14.2607C416.971 12.8137 421.067 12.04 426.16 12.04V8.04C420.693 8.04 415.989 8.86627 412.132 10.6193L413.788 14.2607ZM426.16 12.04C429.517 12.04 432.82 12.4466 436.075 13.2603L437.045 9.37971C433.473 8.4867 429.843 8.04 426.16 8.04V12.04ZM436.104 13.2672C439.328 14.023 442.129 15.1709 444.531 16.6902L446.669 13.3098C443.844 11.5224 440.618 10.217 437.016 9.37276L436.104 13.2672ZM443.747 14.2468L439.747 24.0868L443.453 25.5932L447.453 15.7532L443.747 14.2468ZM442.592 23.1035C439.845 21.5337 437.072 20.3694 434.273 19.6269L433.247 23.4931C435.675 24.1373 438.128 25.1596 440.608 26.5765L442.592 23.1035ZM434.309 19.637C431.532 18.8435 428.787 18.44 426.08 18.44V22.44C428.386 22.44 430.761 22.7832 433.211 23.483L434.309 19.637ZM426.08 18.44C423.439 18.44 421.13 18.7462 419.232 19.4422L420.609 23.1978C421.91 22.7205 423.708 22.44 426.08 22.44V18.44ZM419.232 19.4422C417.414 20.1087 415.867 21.0725 414.859 22.469L418.101 24.811C418.479 24.2875 419.226 23.7047 420.609 23.1978L419.232 19.4422ZM414.891 22.4251C413.911 23.7074 413.44 25.2091 413.44 26.84H417.44C417.44 26.0175 417.663 25.386 418.069 24.8549L414.891 22.4251ZM413.44 26.84C413.44 28.9206 414.331 30.6703 415.977 31.9426L418.423 28.7774C417.723 28.2363 417.44 27.6394 417.44 26.84H413.44ZM416.024 31.9775C417.448 33.0133 419.234 33.7919 421.305 34.367L422.375 30.513C420.606 30.0214 419.299 29.4134 418.376 28.7425L416.024 31.9775ZM421.305 34.367C423.256 34.9092 425.391 35.4494 427.707 35.988L428.613 32.092C426.342 31.5639 424.264 31.0375 422.375 30.513L421.305 34.367ZM427.717 35.9903C430.018 36.5133 432.293 37.1147 434.541 37.7944L435.699 33.9656C433.361 33.2587 430.995 32.6334 428.603 32.0897L427.717 35.9903ZM434.553 37.798C436.747 38.4462 438.718 39.3117 440.477 40.3866L442.563 36.9734C440.482 35.7016 438.186 34.7004 435.687 33.962L434.553 37.798ZM440.477 40.3866C442.126 41.3944 443.446 42.7136 444.453 44.3629L447.867 42.2771C446.528 40.0864 444.754 38.3122 442.563 36.9734L440.477 40.3866ZM444.475 44.3968C445.444 45.9147 446 47.9399 446 50.6H450C450 47.3934 449.329 44.5653 447.845 42.2432L444.475 44.3968ZM446 50.6C446 53.3481 445.239 55.8392 443.701 58.1228L447.019 60.3572C449.001 57.4142 450 54.1453 450 50.6H446ZM443.701 58.1228C442.19 60.3663 439.872 62.2576 436.612 63.7393L438.268 67.3807C442.048 65.6624 445.01 63.3404 447.019 60.3572L443.701 58.1228ZM436.602 63.7441C433.481 65.1847 429.391 65.96 424.24 65.96V69.96C429.755 69.96 434.466 69.1353 438.278 67.3759L436.602 63.7441Z" fill="white" mask="url(#path-1-outside-1_137_906)"/>
</g>
<defs>
<filter id="filter0_d_137_906" x="0.89624" y="0.0400391" width="472.104" height="87.9199" filterUnits="userSpaceOnUse" color-interpolation-filters="sRGB">
<feFlood flood-opacity="0" result="BackgroundImageFix"/>
<feColorMatrix in="SourceAlpha" type="matrix" values="0 0 0 0 0 0 0 0 0 0 0 0 0 0 0 0 0 0 127 0" result="hardAlpha"/>
<feOffset dx="10" dy="5"/>
<feGaussianBlur stdDeviation="7.5"/>
<feComposite in2="hardAlpha" operator="out"/>
<feColorMatrix type="matrix" values="0 0 0 0 1 0 0 0 0 1 0 0 0 0 1 0 0 0 1 0"/>
<feBlend mode="normal" in2="BackgroundImageFix" result="effect1_dropShadow_137_906"/>
<feBlend mode="normal" in="SourceGraphic" in2="effect1_dropShadow_137_906" result="shape"/>
</filter>
</defs>
</svg>
