<svg width="12" height="12" viewBox="0 0 12 12" fill="none" xmlns="http://www.w3.org/2000/svg">
<path d="M1.50005 4.8685C1.49881 4.94452 1.5207 5.01912 1.56283 5.0824C1.60495 5.14569 1.66532 5.19468 1.73593 5.22288L5.3363 6.66325L6.77668 10.264C6.8045 10.3336 6.85257 10.3933 6.91467 10.4354C6.97677 10.4774 7.05005 10.4999 7.12505 10.4999H7.13105C7.207 10.4987 7.2808 10.4744 7.34267 10.4304C7.40455 10.3863 7.45158 10.3245 7.47755 10.2531L10.4776 2.00313C10.5021 1.93601 10.507 1.86328 10.4916 1.79349C10.4762 1.7237 10.4412 1.65976 10.3907 1.60921C10.3401 1.55865 10.2762 1.52358 10.2065 1.50813C10.1367 1.49269 10.0639 1.4975 9.9968 1.522L1.7468 4.522C1.67539 4.54804 1.61356 4.59514 1.5695 4.65708C1.52544 4.71902 1.50122 4.79288 1.50005 4.86888V4.8685Z" fill="#DCDCDC"/>
</svg>
