<svg width="18" height="18" viewBox="0 0 18 18" fill="none" xmlns="http://www.w3.org/2000/svg">
<g clip-path="url(#clip0_397_557)">
<path d="M4.11079 1.49409C4.04438 1.40866 3.96055 1.33833 3.86487 1.28779C3.76919 1.23725 3.66385 1.20764 3.55585 1.20094C3.44785 1.19423 3.33966 1.21059 3.23846 1.24891C3.13727 1.28723 3.04538 1.34665 2.96892 1.42321L1.80567 2.58759C1.26229 3.13209 1.06204 3.90271 1.29942 4.57884C2.28462 7.37737 3.88725 9.91819 5.98842 12.0128C8.08308 14.114 10.6239 15.7166 13.4224 16.7018C14.0985 16.9392 14.8692 16.739 15.4137 16.1956L16.5769 15.0323C16.6535 14.9559 16.7129 14.864 16.7512 14.7628C16.7895 14.6616 16.8059 14.5534 16.7992 14.4454C16.7925 14.3374 16.7629 14.2321 16.7123 14.1364C16.6618 14.0407 16.5915 13.9569 16.506 13.8905L13.9107 11.8722C13.8194 11.8014 13.7132 11.7523 13.6002 11.7285C13.4872 11.7047 13.3702 11.7069 13.2582 11.735L10.7944 12.3503C10.4656 12.4325 10.121 12.4282 9.79434 12.3377C9.46767 12.2472 9.16999 12.0737 8.93029 11.834L6.16729 9.06984C5.92741 8.83025 5.75366 8.53263 5.66297 8.20595C5.57228 7.87927 5.56774 7.53467 5.64979 7.20571L6.26629 4.74196C6.29431 4.62991 6.29652 4.51295 6.27274 4.39992C6.24897 4.28689 6.19983 4.18073 6.12904 4.08946L4.11079 1.49409ZM2.11954 0.574963C2.31641 0.378031 2.55292 0.225234 2.81337 0.126719C3.07382 0.0282038 3.35225 -0.0137759 3.63017 0.0035674C3.90809 0.0209107 4.17914 0.0971802 4.42532 0.227312C4.6715 0.357443 4.88718 0.538458 5.05804 0.758338L7.07629 3.35259C7.44642 3.82846 7.57692 4.44834 7.43067 5.03334L6.81529 7.49709C6.78348 7.6247 6.78519 7.75836 6.82028 7.88511C6.85537 8.01186 6.92263 8.12738 7.01554 8.22046L9.77967 10.9846C9.87286 11.0777 9.98857 11.1451 10.1155 11.1802C10.2425 11.2152 10.3764 11.2169 10.5042 11.1848L12.9668 10.5695C13.2555 10.4973 13.5568 10.4917 13.848 10.5531C14.1392 10.6145 14.4126 10.7412 14.6475 10.9238L17.2418 12.9421C18.1744 13.6677 18.2599 15.0458 17.4252 15.8795L16.2619 17.0427C15.4294 17.8752 14.1852 18.2408 13.0253 17.8325C10.0566 16.7879 7.36122 15.0884 5.13904 12.86C2.91074 10.6381 1.21123 7.9431 0.166542 4.97484C-0.240708 3.81609 0.124917 2.57071 0.957417 1.73821L2.11954 0.574963Z" fill="#EBF1FC"/>
</g>
<defs>
<clipPath id="clip0_397_557">
<rect width="18" height="18" fill="white"/>
</clipPath>
</defs>
</svg>
