<svg width="21" height="20" viewBox="0 0 21 20" fill="none" xmlns="http://www.w3.org/2000/svg">
<g clip-path="url(#clip0_183_5540)">
<path d="M20.4907 2.10923C20.5098 1.99472 20.4986 1.87723 20.4583 1.76838C20.418 1.65952 20.3499 1.56308 20.2609 1.4886C20.1719 1.41411 20.0649 1.36416 19.9507 1.3437C19.8364 1.32323 19.7188 1.33295 19.6094 1.3719L0.942748 8.03857C0.819705 8.08244 0.712264 8.1615 0.633771 8.26592C0.555277 8.37034 0.509191 8.49552 0.501237 8.62591C0.493283 8.7563 0.523812 8.88615 0.58903 8.99934C0.654249 9.11253 0.751284 9.20406 0.868081 9.26257L6.20142 11.9292C6.30652 11.9818 6.42367 12.0057 6.54098 11.9985C6.65829 11.9912 6.7716 11.9531 6.86941 11.8879L11.2961 8.9359L8.64675 12.2506C8.58909 12.3227 8.54706 12.4061 8.52331 12.4953C8.49955 12.5845 8.4946 12.6778 8.50877 12.769C8.52293 12.8603 8.55591 12.9476 8.60559 13.0254C8.65528 13.1033 8.7206 13.17 8.79741 13.2212L16.7974 18.5546C16.8901 18.6162 16.9966 18.6536 17.1074 18.6635C17.2182 18.6733 17.3298 18.6553 17.4318 18.611C17.5339 18.5667 17.6232 18.4976 17.6917 18.41C17.7603 18.3224 17.8058 18.219 17.8241 18.1092L20.4907 2.10923Z" fill="#3B5998"/>
</g>
<defs>
<clipPath id="clip0_183_5540">
<rect width="20" height="20" fill="white" transform="translate(0.5)"/>
</clipPath>
</defs>
</svg>
