<svg width="80" height="80" viewBox="0 0 80 80" fill="none" xmlns="http://www.w3.org/2000/svg">
<path d="M61.6666 33.3334C63.3333 33.3334 64.9999 33.6 66.6666 34.0667V26.6667L46.6666 6.66669H19.9999C16.2999 6.66669 13.3333 9.63335 13.3333 13.3334V66.6667C13.3333 70.3667 16.2999 73.3334 19.9999 73.3334H53.0332C48.9999 68.0334 43.3333 59.2667 43.3333 51.6667C43.3333 41.6667 51.6666 33.3334 61.6666 33.3334ZM43.3333 11.6667L61.6666 30H43.3333V11.6667ZM61.6666 40C55.3333 40 49.9999 45.3334 49.9999 51.6667C49.9999 60.3334 61.6666 73.3334 61.6666 73.3334C61.6666 73.3334 73.3333 60.3334 73.3333 51.6667C73.3333 45.3334 67.9999 40 61.6666 40ZM61.6666 56C59.3333 56 57.6666 54 57.6666 52C57.6666 49.6667 59.6666 48 61.6666 48C63.6666 48 65.6666 50 65.6666 52C65.9999 54 63.9999 56 61.6666 56Z" fill="#3B5998"/>
</svg>
