<svg width="80" height="80" viewBox="0 0 80 80" fill="none" xmlns="http://www.w3.org/2000/svg">
<path d="M62.5 3.90625C54.9688 3.90625 48.9062 9.975 48.9062 17.5C48.9062 25.0312 54.9688 31.0938 62.5 31.0938C70.0312 31.0938 76.0938 25.0312 76.0938 17.5C76.0938 9.975 70.0312 3.90625 62.5 3.90625ZM68.8281 9.22031L71.1719 10.7797L60.2188 27.2031L51.5 18.5L53.5 16.5L59.7812 22.7969L68.8281 9.22031ZM47.6094 24.3906L29.125 37.1875H5V42.8125H29.125L47.6094 55.6094C48.4062 53.8906 49.5 52.3281 50.8125 51L34.9375 40L50.8125 29C49.5 27.6719 48.4062 26.1094 47.6094 24.3906ZM62.5 48.9062C54.9688 48.9062 48.9062 54.9688 48.9062 62.5C48.9062 70.0312 54.9688 76.0938 62.5 76.0938C70.0312 76.0938 76.0938 70.0312 76.0938 62.5C76.0938 54.9688 70.0312 48.9062 62.5 48.9062ZM56 54L62.5 60.5L69 54L71 56L64.5 62.5L71 69L69 71L62.5 64.5L56 71L54 69L60.5 62.5L54 56L56 54Z" fill="#3B5998"/>
</svg>
