<svg width="80" height="80" viewBox="0 0 80 80" fill="none" xmlns="http://www.w3.org/2000/svg">
<path d="M73.3334 13.3334L66.6667 6.66669C62.8334 8.80002 58.0001 10 53.3334 10C48.6667 10 43.8001 8.76669 40.0001 6.66669C36.2001 8.76669 31.3334 10 26.6667 10C22.0001 10 17.1667 8.80002 13.3334 6.66669L6.66675 13.3334C6.66675 13.3334 13.3334 20 13.3334 26.6667C13.3334 33.3334 6.66675 46.6667 6.66675 53.3334C6.66675 66.6667 40.0001 73.3334 40.0001 73.3334C40.0001 73.3334 73.3334 66.6667 73.3334 53.3334C73.3334 46.6667 66.6667 33.3334 66.6667 26.6667C66.6667 20 73.3334 13.3334 73.3334 13.3334ZM50.1667 54.8334L39.9001 48.6334L29.6667 54.8334L32.4001 43.1667L23.3334 35.3667L35.2667 34.3334L39.9001 23.3334L44.5667 34.3L56.5001 35.3334L47.4334 43.1334L50.1667 54.8334Z" fill="#3B5998"/>
</svg>
