<svg width="80" height="80" viewBox="0 0 80 80" fill="none" xmlns="http://www.w3.org/2000/svg">
<path d="M46.7032 3.79846C44.3751 3.84534 42.7032 4.29846 41.5939 5.11096L26.3907 13.2516L17.9376 24.75C16.1564 27.5 17.422 32.8125 22.9845 29.4063L29.0782 21.375C36.8126 14.7047 52.5939 17.7656 45.1095 31.1563C41.4376 38.9063 43.1564 42.6875 47.8907 44.2813L50.047 37.0313C53.7814 28.625 60.7501 27.1094 60.4689 20.3282L77.2189 21.5313L77.0626 4.01721L46.7032 3.79846ZM38.2501 19.9531C35.5314 19.9063 32.8595 21.0313 30.922 22.6563L24.8126 30.6875C26.4845 32.0156 28.172 31.2969 29.8439 29.6875C31.8126 30.6875 33.3439 29.1406 34.5939 26.0469C35.1095 23.9375 35.8751 22.4531 38.2501 19.9531ZM25.8126 34.9531C25.7501 34.9531 25.672 34.9531 25.6095 34.9688C25.0939 35.0781 24.4845 35.625 24.0782 36.875C23.6564 38.125 23.5626 39.9063 23.9376 41.8125C24.3126 43.7032 25.0939 45.3125 25.9689 46.3125C26.8126 47.2969 27.5939 47.5781 28.1095 47.4688C28.6407 47.375 29.2345 46.8125 29.6407 45.5782C30.0626 44.3282 30.172 42.5313 29.797 40.6407C29.4064 38.7344 28.6251 37.125 27.7657 36.1407C27.0157 35.2656 26.3282 34.9531 25.8126 34.9531ZM38.7189 51.6406C37.4845 51.6563 35.9376 52.0469 34.422 52.7813C32.6876 53.6406 31.3282 54.8281 30.5939 55.9219C29.8595 57 29.797 57.8125 30.0314 58.2969C30.2657 58.7657 30.9532 59.2188 32.2657 59.2813C33.5782 59.3594 35.3439 59 37.0782 58.1407C38.8126 57.2813 40.172 56.1094 40.9064 55.0157C41.6407 53.9375 41.7032 53.1094 41.4689 52.6406C41.2345 52.1563 40.547 51.7188 39.2345 51.6563C39.0626 51.6407 38.9064 51.6406 38.7189 51.6406ZM23.4689 66.5782C22.7345 66.5938 22.0626 66.7031 21.4689 66.875C20.1407 67.2656 19.3751 67.9688 19.1251 68.7969C18.8595 69.6406 19.1251 70.6406 20.0157 71.7188C20.922 72.7813 22.4376 73.7969 24.3126 74.3594C26.172 74.9219 27.9845 74.9063 29.3282 74.5C30.672 74.1094 31.4376 73.4063 31.6876 72.5781C31.9376 71.7344 31.6876 70.7344 30.7814 69.6563C29.8907 68.5938 28.3751 67.5781 26.5001 67.0156C25.4376 66.7031 24.4064 66.5625 23.4689 66.5782Z" fill="#3B5998"/>
</svg>
