<svg width="80" height="80" viewBox="0 0 80 80" fill="none" xmlns="http://www.w3.org/2000/svg">
<g clip-path="url(#clip0_15_832)">
<path d="M4.58374 80C4.34295 79.9991 4.11094 79.8982 3.93215 79.7168C3.75337 79.5353 3.64038 79.286 3.61485 79.0167L3.32755e-05 37.7867L-0.00292969 37.6834C-0.00292969 37.0767 0.432626 36.5867 0.971885 36.5867H25.366V80.0034L4.58374 80ZM14.5393 69.1167C14.5393 69.9744 14.7654 70.8162 15.1889 71.5294C15.6125 72.2425 16.2146 72.7983 16.9189 73.1266C17.6233 73.4548 18.3984 73.5407 19.1461 73.3734C19.8939 73.206 20.5808 72.793 21.1199 72.1865C21.659 71.58 22.0261 70.8073 22.1749 69.9661C22.3236 69.1248 22.2473 68.2529 21.9555 67.4604C21.6637 66.668 21.1696 65.9907 20.5357 65.5142C19.9018 65.0377 19.1565 64.7834 18.3941 64.7834H18.3882C16.2578 64.7834 14.5334 66.7234 14.5304 69.12L14.5393 69.1167ZM15.9615 42.45C15.9615 43.0534 16.3971 43.5434 16.9363 43.5434H19.2C19.4578 43.5434 19.705 43.4282 19.8872 43.2231C20.0695 43.0181 20.1719 42.74 20.1719 42.45C20.1719 42.16 20.0695 41.882 19.8872 41.6769C19.705 41.4719 19.4578 41.3567 19.2 41.3567H16.9186C16.66 41.3567 16.4121 41.4722 16.2293 41.6779C16.0464 41.8836 15.9437 42.1625 15.9437 42.4534V42.4634L15.9615 42.45ZM5.26522 42.45C5.26522 43.0534 5.70077 43.5434 6.23707 43.5434H13.6593C13.917 43.5434 14.1642 43.4282 14.3465 43.2231C14.5288 43.0181 14.6311 42.74 14.6311 42.45C14.6311 42.16 14.5288 41.882 14.3465 41.6769C14.1642 41.4719 13.917 41.3567 13.6593 41.3567H6.21929C5.96154 41.3567 5.71435 41.4719 5.53209 41.6769C5.34983 41.882 5.24744 42.16 5.24744 42.45V42.46L5.26522 42.45ZM34.3023 73.7434C33.7801 73.545 33.2868 73.2608 32.8386 72.9L32.8563 72.9134L32.56 72.7034C31.8698 72.2163 31.1882 71.7139 30.5156 71.1967L30.2163 70.96C29.8252 70.6434 29.6415 70.5034 29.44 70.5167C28.7289 70.5334 28.0178 70.54 27.3067 70.55V40.0334L27.2682 37.4667C28.6045 36.51 29.8371 35.6 30.2074 35.2534C30.7111 34.1134 31.2089 33.16 31.76 32.2467L31.7097 32.3367C31.9615 31.8934 32.2134 31.4534 32.4445 31.0167L37.5526 21.37C37.7897 20.9167 38.0474 20.4634 38.3052 20.01C38.7348 19.29 39.1911 18.43 39.6089 17.5434L39.68 17.38C39.9141 16.8417 39.9958 16.2356 39.9141 15.6434L39.9171 15.66L39.8993 5.26002C40.086 3.74669 40.8445 2.46669 41.9141 1.68669L41.9319 1.67336C42.8855 0.707102 44.0955 0.121333 45.3748 0.00669027H45.3956L45.5823 0.00335693C46.5926 0.00335693 47.5467 0.273357 48.3941 0.750024L48.3585 0.730024C48.9245 1.03669 49.4074 1.36336 49.8608 1.73002L49.8311 1.70669L50.1452 1.94002C50.8593 2.36336 51.3926 3.07669 51.6297 3.94002L51.6356 3.96336C52.1897 6.28336 52.6963 8.39336 53.1674 10.51L53.363 11.3734C53.6623 12.5067 53.92 13.8767 54.086 15.28L54.1008 15.42C53.5941 20.6667 52.6193 25.4534 51.2089 30.0134L51.3334 29.5534L74.1274 29.5167H74.2104C74.9009 29.5168 75.5836 29.6821 76.2129 30.0018C76.8423 30.3214 77.404 30.788 77.8608 31.3706C78.3176 31.9532 78.659 32.6385 78.8623 33.3809C79.0656 34.1233 79.1262 34.9059 79.04 35.6767L79.043 35.65C79.1068 36.8146 78.8953 37.9774 78.43 39.0201C77.9647 40.0629 77.2623 40.9484 76.3941 41.5867L76.3704 41.6034C77.2019 42.9711 77.591 44.6184 77.4726 46.27V46.2467C77.5764 47.5555 77.3055 48.8674 76.6994 49.9906C76.0933 51.1139 75.1838 51.9897 74.1037 52.49L74.0682 52.5034C74.731 53.8326 75.0386 55.3489 74.9541 56.87V56.85C75.0186 57.9895 74.8088 59.1274 74.3468 60.144C73.8848 61.1606 73.1877 62.0183 72.3289 62.6267L72.3052 62.6434C72.9104 64.1681 73.1397 65.848 72.9689 67.5067L72.9719 67.4634V68.09C72.9294 68.911 72.7402 69.714 72.4154 70.4507C72.0907 71.1875 71.6371 71.843 71.0819 72.378C70.5267 72.913 69.8813 73.3164 69.1842 73.5642C68.4872 73.812 67.7529 73.899 67.0252 73.82L67.046 73.8234H53.923L53.8785 73.8267L53.8311 73.8234H53.8341H36.323C36.1719 73.8234 36.0148 73.8234 35.8489 73.85C35.6474 73.8634 35.4341 73.8834 35.2148 73.8834H35.1704C34.8711 73.8837 34.5732 73.8388 34.2845 73.75L34.3082 73.7567L34.3023 73.7434ZM16.48 69.12C16.4802 68.8397 16.5295 68.5621 16.6251 68.3031C16.7206 68.0442 16.8606 67.8089 17.0369 67.6108C17.2133 67.4127 17.4226 67.2557 17.6529 67.1486C17.8833 67.0415 18.1301 66.9865 18.3793 66.9867C18.6285 66.9869 18.8753 67.0424 19.1054 67.1498C19.3356 67.2573 19.5447 67.4148 19.7208 67.6132C19.8969 67.8116 20.0365 68.0471 20.1317 68.3062C20.2269 68.5653 20.2758 68.843 20.2756 69.1234C20.2752 69.6896 20.0749 70.2325 19.7187 70.6325C19.3625 71.0326 18.8797 71.2571 18.3763 71.2567C17.873 71.2562 17.3905 71.0309 17.0348 70.6302C16.6792 70.2295 16.4796 69.6863 16.48 69.12Z" fill="#3B5998"/>
</g>
<defs>
<clipPath id="clip0_15_832">
<rect width="80" height="80" fill="white"/>
</clipPath>
</defs>
</svg>
