<svg width="20" height="20" viewBox="0 0 20 20" fill="none" xmlns="http://www.w3.org/2000/svg">
<path d="M10.0013 1.66675C14.6038 1.66675 18.3346 5.39758 18.3346 10.0001C18.3346 14.6026 14.6038 18.3334 10.0013 18.3334C8.52863 18.3358 7.08186 17.9461 5.80965 17.2042L1.67131 18.3334L2.79798 14.1934C2.05556 12.9208 1.66552 11.4734 1.66798 10.0001C1.66798 5.39758 5.39881 1.66675 10.0013 1.66675ZM7.16131 6.08341L6.99465 6.09008C6.88675 6.09665 6.7813 6.125 6.68465 6.17341C6.59425 6.22461 6.51173 6.2886 6.43965 6.36341C6.33965 6.45758 6.28298 6.53925 6.22215 6.61841C5.91392 7.01917 5.74796 7.51118 5.75048 8.01675C5.75215 8.42508 5.85881 8.82258 6.02548 9.19425C6.36631 9.94591 6.92715 10.7417 7.66715 11.4792C7.84548 11.6567 8.02048 11.8351 8.20881 12.0009C9.1283 12.8105 10.224 13.3943 11.4088 13.7059L11.8821 13.7784C12.0363 13.7867 12.1905 13.7751 12.3455 13.7676C12.5882 13.7551 12.8252 13.6893 13.0396 13.5751C13.1488 13.5189 13.2553 13.4577 13.3588 13.3917C13.3588 13.3917 13.3946 13.3684 13.463 13.3167C13.5755 13.2334 13.6446 13.1742 13.738 13.0767C13.8071 13.0051 13.8671 12.9209 13.913 12.8251C13.978 12.6892 14.043 12.4301 14.0696 12.2142C14.0896 12.0492 14.0838 11.9592 14.0813 11.9034C14.078 11.8142 14.0038 11.7217 13.923 11.6826L13.438 11.4651C13.438 11.4651 12.713 11.1492 12.2696 10.9476C12.2233 10.9273 12.1735 10.9157 12.123 10.9134C12.066 10.9076 12.0084 10.914 11.954 10.9322C11.8997 10.9505 11.8499 10.9802 11.808 11.0192C11.8038 11.0176 11.748 11.0651 11.1455 11.7951C11.1109 11.8415 11.0633 11.8767 11.0086 11.896C10.954 11.9153 10.8949 11.9178 10.8388 11.9034C10.7845 11.8889 10.7313 11.8705 10.6796 11.8484C10.5763 11.8051 10.5405 11.7884 10.4696 11.7584C9.99137 11.5497 9.54855 11.2677 9.15715 10.9226C9.05215 10.8309 8.95465 10.7309 8.85465 10.6342C8.5268 10.3203 8.24108 9.96509 8.00465 9.57758L7.95548 9.49841C7.92017 9.44522 7.89161 9.38783 7.87048 9.32758C7.83881 9.20508 7.92131 9.10675 7.92131 9.10675C7.92131 9.10675 8.12381 8.88508 8.21798 8.76508C8.30965 8.64841 8.38715 8.53508 8.43715 8.45425C8.53548 8.29592 8.56631 8.13341 8.51465 8.00758C8.28131 7.43758 8.03965 6.87008 7.79131 6.30675C7.74215 6.19508 7.59631 6.11508 7.46381 6.09925C7.41881 6.09425 7.37381 6.08925 7.32881 6.08591C7.2169 6.08035 7.10476 6.08147 6.99298 6.08925L7.16048 6.08258L7.16131 6.08341Z" fill="#3B5998"/>
</svg>
